<svg version="1.1" id="Layer_1" xmlns="http://www.w3.org/2000/svg" xmlns:xlink="http://www.w3.org/1999/xlink" x="0px" y="0px"
	 width="100%" viewBox="0 0 54 54" enable-background="new 0 0 54 54" xml:space="preserve">
<path fill="#030303" opacity="1.000000" stroke="none" 
	d="
M30.000038,55.000000 
	C20.000023,55.000000 10.500023,55.000000 1.000017,55.000000 
	C1.000011,37.000008 1.000011,19.000015 1.000006,1.000017 
	C18.999992,1.000011 36.999985,1.000011 54.999985,1.000006 
	C54.999989,18.999992 54.999989,36.999985 54.999992,54.999989 
	C46.833351,55.000000 38.666702,55.000000 30.000038,55.000000 
M13.065785,42.433453 
	C14.720039,42.387280 16.398071,42.502373 18.023788,42.262661 
	C21.864782,41.696327 24.529268,39.656433 24.942619,35.592014 
	C25.379473,31.296507 23.252188,28.662830 19.124048,27.570345 
	C17.202635,27.061855 15.108602,26.846281 13.427453,25.902098 
	C12.063805,25.136232 11.200063,23.480267 10.114603,22.219078 
	C11.619840,21.145826 13.055881,19.351105 14.649395,19.198271 
	C16.307714,19.039223 18.148041,20.403084 19.852600,21.218487 
	C21.236994,21.880733 22.538263,22.716745 24.656481,23.918133 
	C23.051083,16.278643 16.881927,13.073391 10.801119,16.153227 
	C8.691772,17.221579 6.291354,20.243134 6.322261,22.338675 
	C6.357125,24.702555 8.610507,27.443138 10.605817,29.231108 
	C12.041813,30.517889 14.825199,30.170345 16.657316,31.184534 
	C18.307835,32.098194 19.482037,33.872314 20.866320,35.266926 
	C19.058739,36.479908 17.334064,38.472080 15.419102,38.675835 
	C13.677286,38.861160 11.740616,37.077412 9.867237,36.210506 
	C8.530680,35.592014 7.156692,35.054417 5.134346,34.199615 
	C6.010273,39.553249 8.485591,41.595139 13.065785,42.433453 
M38.514805,33.877354 
	C41.823032,36.675358 42.253796,43.321407 49.569080,41.642551 
	C45.807751,36.650043 42.273342,31.958735 38.689743,27.202133 
	C42.073353,23.452190 45.150650,20.041719 48.989162,15.787619 
	C40.080860,15.454840 38.850857,23.971918 33.062946,26.776073 
	C33.062946,23.048489 33.062946,19.633499 33.062946,16.218508 
	C32.624908,15.927747 32.186867,15.636985 31.748829,15.346223 
	C30.875996,16.478508 29.288715,17.585701 29.247921,18.747210 
	C29.008532,25.563242 29.012127,32.396057 29.248730,39.212280 
	C29.287277,40.322742 30.894238,41.378761 32.240826,43.029392 
	C33.122784,37.917744 33.747715,34.295780 34.372643,30.673817 
	C34.875023,30.690426 35.377399,30.707035 35.879780,30.723644 
	C36.601746,31.582134 37.323715,32.440624 38.514805,33.877354 
z"/>
<path fill="#EDEDED" opacity="1.000000" stroke="none" 
	d="
M12.684074,42.348381 
	C8.485591,41.595139 6.010273,39.553249 5.134346,34.199615 
	C7.156692,35.054417 8.530680,35.592014 9.867237,36.210506 
	C11.740616,37.077412 13.677286,38.861160 15.419102,38.675835 
	C17.334064,38.472080 19.058739,36.479908 20.866320,35.266926 
	C19.482037,33.872314 18.307835,32.098194 16.657316,31.184534 
	C14.825199,30.170345 12.041813,30.517889 10.605817,29.231108 
	C8.610507,27.443138 6.357125,24.702555 6.322261,22.338675 
	C6.291354,20.243134 8.691772,17.221579 10.801119,16.153227 
	C16.881927,13.073391 23.051083,16.278643 24.656481,23.918133 
	C22.538263,22.716745 21.236994,21.880733 19.852600,21.218487 
	C18.148041,20.403084 16.307714,19.039223 14.649395,19.198271 
	C13.055881,19.351105 11.619840,21.145826 10.114603,22.219078 
	C11.200063,23.480267 12.063805,25.136232 13.427453,25.902098 
	C15.108602,26.846281 17.202635,27.061855 19.124048,27.570345 
	C23.252188,28.662830 25.379473,31.296507 24.942619,35.592014 
	C24.529268,39.656433 21.864782,41.696327 18.023788,42.262661 
	C16.398071,42.502373 14.720039,42.387280 12.684074,42.348381 
z"/>
<path fill="#EFEFEF" opacity="1.000000" stroke="none" 
	d="
M38.280243,33.588234 
	C37.323715,32.440624 36.601746,31.582134 35.879780,30.723644 
	C35.377399,30.707035 34.875023,30.690426 34.372643,30.673817 
	C33.747715,34.295780 33.122784,37.917744 32.240826,43.029392 
	C30.894238,41.378761 29.287277,40.322742 29.248730,39.212280 
	C29.012127,32.396057 29.008532,25.563242 29.247921,18.747210 
	C29.288715,17.585701 30.875996,16.478508 31.748829,15.346223 
	C32.186867,15.636985 32.624908,15.927747 33.062946,16.218508 
	C33.062946,19.633499 33.062946,23.048489 33.062946,26.776073 
	C38.850857,23.971918 40.080860,15.454840 48.989162,15.787619 
	C45.150650,20.041719 42.073353,23.452190 38.689743,27.202133 
	C42.273342,31.958735 45.807751,36.650043 49.569080,41.642551 
	C42.253796,43.321407 41.823032,36.675358 38.280243,33.588234 
z"/>
</svg>